<svg width="68" height="20" viewBox="0 0 68 20" fill="none" xmlns="http://www.w3.org/2000/svg">
<path d="M4.08753 -0.00039196L16.7155 18.1996V19.5996H12.6275L4.08753 7.27961V19.5996H-0.000468746V-0.00039196H4.08753ZM12.6275 -0.00039196H16.7155V14.6716L12.6275 11.7316V-0.00039196ZM25.5353 5.37561C26.5246 5.37561 27.458 5.57161 28.3353 5.96361C29.2126 6.33694 29.978 6.85028 30.6313 7.50361C31.2846 8.15694 31.798 8.92228 32.1713 9.79961C32.5633 10.6769 32.7593 11.6196 32.7593 12.6276C32.7593 13.1689 32.7033 13.6916 32.5913 14.1956L32.5633 14.2516H25.4513L23.6593 11.3956H28.9793C28.718 10.6116 28.2793 9.96761 27.6633 9.46361C27.066 8.95961 26.3566 8.70761 25.5353 8.70761C25.0313 8.70761 24.5553 8.81028 24.1073 9.01561C23.6593 9.22094 23.2673 9.50094 22.9313 9.85561C22.614 10.1916 22.362 10.6023 22.1753 11.0876C21.9886 11.5543 21.8953 12.0676 21.8953 12.6276C21.8953 13.0569 21.9793 13.5049 22.1473 13.9716C22.3153 14.4196 22.558 14.8303 22.8753 15.2036C23.1926 15.5769 23.5753 15.8943 24.0233 16.1556C24.4713 16.3983 24.9753 16.5196 25.5353 16.5196C26.0393 16.5196 26.4966 16.4543 26.9073 16.3236C27.3366 16.1743 27.738 15.8569 28.1113 15.3716L28.1393 15.3436L28.1953 15.3716L31.4433 16.7996L31.3873 16.8556C30.7153 17.7889 29.8566 18.5169 28.8113 19.0396C27.7846 19.5623 26.6926 19.8236 25.5353 19.8236C24.5273 19.8236 23.5753 19.6369 22.6793 19.2636C21.802 18.8903 21.0366 18.3769 20.3833 17.7236C19.73 17.0703 19.2073 16.3049 18.8153 15.4276C18.442 14.5503 18.2553 13.6169 18.2553 12.6276C18.2553 11.6196 18.442 10.6769 18.8153 9.79961C19.2073 8.92228 19.73 8.15694 20.3833 7.50361C21.0366 6.85028 21.802 6.33694 22.6793 5.96361C23.5753 5.57161 24.5273 5.37561 25.5353 5.37561ZM31.4558 19.5996L35.2078 14.5036L38.6238 16.0716L36.0198 19.5996H31.4558ZM41.1438 12.6556L46.2958 19.5996H41.7038V19.5716L36.6078 12.6836L31.4838 5.59961H36.0198L38.8478 10.3596L41.7038 5.59961H46.2958L46.2398 5.62761L41.1438 12.6556ZM47.4103 19.5996V5.59961H51.1343V19.5996H47.4103ZM47.4103 -0.00039196H51.1343V3.27561H47.4103V-0.00039196ZM67.8604 5.59961V19.5996H64.1924V12.5996C64.1924 12.0583 64.0897 11.5543 63.8844 11.0876C63.679 10.6209 63.3897 10.2103 63.0164 9.85561C62.6617 9.50094 62.2417 9.23028 61.7564 9.04361C61.2897 8.83828 60.795 8.73561 60.2724 8.73561C59.731 8.73561 59.227 8.83828 58.7604 9.04361C58.2937 9.24894 57.8737 9.52894 57.5004 9.88361C57.1457 10.2196 56.8657 10.6303 56.6604 11.1156C56.455 11.5823 56.3524 12.0863 56.3524 12.6276C56.3524 13.1503 56.455 13.6449 56.6604 14.1116C56.8657 14.5783 57.1457 14.9889 57.5004 15.3436C57.8737 15.6983 58.2937 15.9783 58.7604 16.1836C59.227 16.3889 59.731 16.4916 60.2724 16.4916C60.851 16.4916 61.3457 16.3889 61.7564 16.1836H61.7844V16.2396L63.1844 18.7316L63.1564 18.7596C62.2417 19.4689 61.1124 19.8236 59.7684 19.8236C58.779 19.8236 57.8457 19.6369 56.9684 19.2636C56.091 18.8903 55.3257 18.3769 54.6724 17.7236C54.019 17.0703 53.4964 16.3049 53.1044 15.4276C52.731 14.5503 52.5444 13.6169 52.5444 12.6276C52.5444 11.6196 52.731 10.6769 53.1044 9.79961C53.4964 8.92228 54.019 8.15694 54.6724 7.50361C55.3257 6.85028 56.091 6.33694 56.9684 5.96361C57.8457 5.57161 58.779 5.37561 59.7684 5.37561C60.739 5.37561 61.5884 5.56228 62.3164 5.93561C63.0444 6.29028 63.6697 6.81294 64.1924 7.50361V5.59961H67.8604Z" fill="#4E0EEF"/>
</svg>
